# xmcd CD database file
#
# Track frame offsets:
#	150
#	21285
#	53820
#	75287
#	96544
#	118943
#	166321
#	177758
#	208644
#	242506
#	289481
#
# Disc length: 4758 seconds
#
# Revision: 0
# Processed by: cddbd v1.5.2PL0 Copyright (c) Steve Scherf et al.
# Submitted via: CDex 1.51
#
DISCID=9512940b
DTITLE=Peterson,Lucky Featuring Tamara Peterson - Live At The 55 Arts Club Berlin CD 2
DYEAR=2012
DGENRE=Blues
TTITLE0=Giving Me The Blues
TTITLE1=Ta' Ta' You
TTITLE2=It Ain´t Safe
TTITLE3=I`m Ready
TTITLE4=Who`s Been Talking
TTITLE5=I Believe I`ll Dust My Broom
TTITLE6=The World`s In A Tangle
TTITLE7=Kiss
TTITLE8=Last Night You Left
TTITLE9=Ain`t Nobody Like You
TTITLE10=Real Music
EXTD=YEAR: 2012
EXTT0=
EXTT1=
EXTT2=
EXTT3=
EXTT4=
EXTT5=
EXTT6=
EXTT7=
EXTT8=
EXTT9=
EXTT10=
PLAYORDER=
